<svg xmlns="http://www.w3.org/2000/svg" viewBox="0 0 560 505" width="560" height="505"><g fill="#FFFFFF" transform="translate(117.4516,37.5600) scale(0.232378)"><g transform="translate(0.000000,1310.000000) scale(0.100000,-0.100000)">
<path d="M6615 12640 c-288 -24 -366 -33 -449 -50 -140 -31 -356 -99 -411
-130 -27 -16 -73 -38 -101 -49 -29 -11 -92 -42 -140 -70 -298 -167 -466 -293
-694 -521 -206 -205 -605 -630 -756 -803 -146 -168 -832 -874 -934 -962 -32
-27 -87 -84 -122 -125 -34 -41 -162 -174 -283 -295 -121 -122 -314 -324 -430
-449 -115 -126 -296 -315 -400 -420 -105 -105 -230 -234 -277 -286 -48 -52
-198 -201 -332 -330 -335 -321 -360 -353 -523 -671 -131 -255 -184 -434 -212
-723 -35 -355 35 -696 201 -981 107 -184 150 -239 413 -526 503 -551 511 -557
692 -561 159 -3 183 17 234 192 94 327 295 569 1315 1585 436 435 916 927
1387 1422 158 165 306 318 330 340 24 21 188 187 364 368 340 351 431 434 584
536 207 137 355 208 579 275 321 97 269 94 2201 99 1858 4 1702 -3 1761 83 42
60 49 131 20 188 -38 74 -209 259 -678 734 -450 457 -835 863 -1091 1150 -238
268 -459 466 -675 607 -182 119 -613 304 -777 333 -192 34 -610 55 -796 40z"/>
<path d="M11545 8157 c-22 -8 -56 -22 -75 -32 -60 -31 -344 -320 -442 -450
-62 -82 -163 -192 -322 -350 -269 -267 -1012 -1026 -1205 -1230 -72 -77 -412
-417 -755 -755 -343 -338 -726 -725 -852 -860 -454 -488 -529 -554 -804 -698
-134 -70 -248 -112 -416 -152 -223 -54 -189 -53 -1944 -55 -899 0 -1655 -5
-1680 -9 -88 -17 -138 -61 -126 -110 12 -50 170 -226 686 -766 124 -130 293
-312 375 -406 680 -773 1163 -1275 1335 -1390 143 -96 521 -284 569 -284 6 0
64 -18 128 -40 258 -88 699 -153 893 -130 314 36 548 78 646 115 38 15 98 36
134 47 242 76 530 228 720 381 136 110 526 503 1050 1057 95 102 359 372 585
600 225 228 554 563 730 745 176 181 563 575 860 875 966 977 1620 1656 1659
1723 33 57 102 247 133 366 41 160 41 221 -1 401 -66 283 -167 446 -428 692
-84 79 -247 235 -363 348 -289 281 -349 324 -495 356 -95 20 -542 29 -595 11z"/>
</g></g><g fill="#FFFFFF" transform="translate(87.2619,386.7857) scale(0.119048)"><g transform="translate(0.000000,336.000000) scale(0.100000,-0.100000)">
<path d="M249 3069 c-10 -10 -19 -23 -19 -28 0 -26 25 -67 63 -105 39 -38 323
-367 459 -532 31 -38 117 -140 190 -228 161 -192 176 -210 306 -373 56 -70
137 -170 180 -222 128 -156 221 -270 311 -381 47 -58 130 -159 185 -225 98
-119 227 -278 361 -445 169 -210 235 -288 268 -317 l35 -31 174 2 174 1 42 31
c47 34 208 212 330 364 42 52 106 129 142 170 37 41 111 129 165 195 91 111
143 173 301 359 33 39 109 132 169 206 59 74 136 167 169 206 34 39 86 101
116 139 30 38 100 122 155 188 55 65 114 136 130 158 17 21 90 109 163 196 74
87 153 183 178 213 87 108 210 254 272 322 50 56 62 76 62 103 0 23 -6 38 -19
44 -11 6 -135 9 -323 8 l-305 -2 -37 -28 c-20 -16 -79 -79 -131 -140 -51 -62
-135 -162 -187 -223 -51 -61 -127 -155 -168 -209 -41 -54 -97 -126 -125 -160
-150 -187 -215 -267 -270 -330 -58 -67 -106 -124 -170 -205 -16 -20 -102 -126
-190 -235 -88 -109 -209 -259 -270 -334 -60 -75 -143 -175 -183 -221 -41 -47
-81 -98 -89 -115 -46 -90 -104 -101 -142 -26 -29 55 -187 252 -590 731 -20 25
-79 99 -130 165 -51 66 -115 147 -143 180 -112 134 -424 522 -532 665 -60 78
-104 131 -206 250 -41 48 -94 112 -118 144 -71 92 -60 90 -421 92 -295 2 -314
1 -332 -17z"/>
<path d="M7185 3057 l-35 -35 0 -201 c0 -212 7 -250 47 -265 9 -4 759 -7 1667
-6 1808 0 1684 -4 1707 58 6 15 9 107 7 225 l-3 199 -28 24 -28 24 -1588 0
c-873 0 -1616 3 -1649 6 -60 7 -62 6 -97 -29z"/>
<path d="M15439 3086 c-3 -3 -612 -6 -1354 -6 -1431 -1 -1377 1 -1416 -46 -18
-21 -32 -359 -18 -417 20 -77 -120 -71 1582 -68 1659 2 1630 3 1754 -54 75
-34 149 -107 191 -190 35 -67 36 -74 37 -175 l0 -105 -42 -72 c-70 -117 -165
-185 -318 -228 -83 -23 -183 -24 -1763 -28 -1349 -4 -1373 -4 -1399 -24 -15
-10 -30 -30 -33 -44 -4 -13 -8 -166 -9 -339 -1 -173 -4 -470 -6 -660 -3 -214
0 -357 6 -377 19 -61 40 -66 274 -70 234 -4 248 -1 278 57 17 33 18 67 15 477
-3 414 -2 443 15 460 17 17 67 18 865 21 466 1 857 0 869 -3 34 -8 103 -70
608 -545 310 -292 424 -395 486 -438 l45 -33 360 0 c197 0 364 0 370 0 7 1 15
8 18 18 10 25 -37 87 -101 134 -31 24 -98 79 -148 123 -49 45 -121 108 -159
141 -39 33 -84 74 -100 90 -17 17 -92 85 -166 150 -74 66 -156 141 -181 167
-26 25 -74 64 -106 86 -72 49 -85 64 -81 94 4 32 43 48 118 48 70 0 255 47
325 83 82 41 240 150 297 205 79 75 141 165 189 276 35 81 41 104 49 210 11
139 -2 327 -26 384 -9 20 -25 61 -35 91 -28 80 -103 183 -201 277 -139 132
-303 222 -482 265 -44 11 -112 28 -151 39 -52 15 -118 21 -260 26 -104 4 -193
4 -196 0z"/>
<path d="M19054 3067 l-29 -25 -3 -1379 c-1 -758 0 -1393 3 -1411 3 -18 15
-42 25 -52 18 -18 33 -19 257 -14 235 5 238 5 259 29 13 14 24 43 28 72 3 26
4 655 3 1396 l-2 1349 -28 24 c-28 23 -32 24 -211 24 -101 0 -203 3 -228 6
-38 5 -48 3 -74 -19z"/>
<path d="M28435 3083 c-66 -2 -130 -5 -143 -8 -52 -12 -50 31 -51 -1430 0
-748 3 -1374 7 -1390 17 -60 34 -64 281 -66 l225 -2 23 27 23 27 0 1010 c0
996 0 1009 20 1029 11 11 24 20 29 20 5 0 37 -23 72 -51 35 -28 127 -94 204
-147 189 -129 371 -261 480 -347 50 -39 102 -79 116 -90 163 -123 271 -202
354 -259 96 -65 141 -98 466 -338 239 -177 332 -244 374 -272 22 -14 67 -46
100 -71 33 -24 85 -62 115 -85 30 -22 75 -56 100 -75 83 -64 244 -181 305
-223 22 -15 75 -55 117 -90 43 -34 88 -66 101 -71 13 -5 88 -9 168 -9 156 0
198 10 221 50 11 19 13 271 13 1388 1 751 -3 1382 -7 1403 -14 63 -26 65 -278
68 -124 2 -232 -1 -239 -5 -41 -26 -41 -31 -41 -1079 0 -767 -3 -1006 -12
-1015 -24 -24 -56 -11 -134 51 -43 35 -117 92 -164 127 -47 36 -119 92 -160
125 -71 58 -99 78 -231 170 -70 49 -157 113 -427 314 -114 85 -331 242 -482
351 -151 108 -340 246 -420 306 -80 60 -221 164 -315 231 -93 66 -196 141
-228 164 -31 24 -86 64 -122 89 -36 25 -98 69 -137 99 -40 29 -81 56 -92 61
-34 12 -103 16 -231 13z"/>
<path d="M22945 3065 c-430 -79 -772 -285 -977 -585 -24 -36 -51 -84 -60 -106
-9 -23 -28 -58 -42 -79 -14 -21 -26 -45 -26 -54 0 -9 -14 -54 -31 -101 -16
-47 -36 -128 -44 -180 -19 -125 -19 -438 0 -603 43 -364 255 -724 538 -909
137 -91 164 -106 202 -118 22 -7 65 -24 95 -37 71 -31 252 -81 360 -99 130
-21 1924 -20 2025 1 39 9 126 27 195 41 68 14 145 36 170 49 25 12 70 30 101
39 31 8 67 24 80 34 13 11 40 27 59 37 95 48 260 194 344 304 143 189 210 320
263 516 l38 140 0 290 0 290 -31 90 c-17 50 -35 105 -39 123 -8 36 -98 218
-149 298 -80 128 -228 279 -354 361 -46 30 -91 57 -100 60 -10 4 -33 17 -52
30 -90 58 -390 150 -564 173 -117 15 -1917 11 -2001 -5z m2067 -537 c100 -30
245 -95 310 -139 66 -45 169 -144 227 -218 29 -36 56 -97 101 -221 16 -43 30
-189 30 -305 -1 -223 -48 -416 -132 -540 -54 -79 -150 -178 -219 -225 -78 -54
-224 -117 -349 -151 l-105 -29 -900 2 c-899 3 -900 3 -997 26 -172 41 -342
134 -439 240 -97 106 -124 155 -194 342 -16 42 -35 232 -35 345 1 140 25 280
67 385 45 114 75 159 168 258 82 86 180 151 292 192 168 61 129 59 1168 57
859 -2 955 -4 1007 -19z"/>
<path d="M7210 1847 c-65 -17 -62 23 -61 -827 0 -458 4 -777 10 -788 5 -9 18
-25 28 -35 19 -16 112 -17 1666 -17 937 0 1656 4 1669 9 49 19 53 32 60 235 7
206 5 218 -45 251 -21 13 -190 16 -1407 18 l-1383 4 -19 22 c-20 26 -20 28
-17 201 1 69 3 185 3 258 2 122 4 134 24 154 l22 22 1131 2 1131 2 22 21 c20
20 21 33 24 199 2 97 1 191 -3 209 -13 71 97 66 -1440 67 -762 1 -1398 -2
-1415 -7z"/>
</g></g><g fill="#FFFFFF" transform="translate(86.6087,443.9061) scale(0.178488)"><g transform="translate(0.000000,128.000000) scale(0.100000,-0.100000)">
<path d="M2421 1106 c-52 -29 -65 -93 -26 -131 23 -24 28 -25 172 -25 198 0
196 1 187 -125 -3 -51 -3 -195 1 -320 7 -221 8 -229 31 -252 32 -32 93 -32
131 1 l28 24 -1 149 c0 81 -2 224 -3 317 -2 144 0 171 13 185 13 13 47 17 170
21 133 4 157 8 175 24 35 32 24 103 -19 126 -13 7 -166 13 -428 15 -330 4
-412 2 -431 -9z"/>
<path d="M5433 1096 l-28 -24 -5 -270 -5 -270 -30 -43 c-58 -82 -64 -84 -258
-84 -195 0 -218 7 -269 80 l-28 40 -3 255 c-2 218 -5 260 -20 287 -20 37 -45
47 -93 38 -24 -4 -41 -16 -55 -38 -20 -31 -20 -43 -16 -298 6 -292 7 -301 73
-390 27 -37 57 -60 122 -96 l87 -48 196 0 195 0 66 33 c93 48 132 83 175 160
l38 67 3 264 c3 230 1 270 -13 302 -28 61 -84 76 -132 35z"/>
<path d="M9369 1101 l-24 -19 -3 -388 c-2 -272 1 -396 9 -415 20 -50 107 -60
146 -17 17 18 18 50 21 382 2 198 0 376 -3 395 -13 72 -93 105 -146 62z"/>
<path d="M11364 1111 c-138 -11 -220 -47 -309 -136 -39 -38 -79 -87 -89 -108
-36 -77 -43 -239 -15 -348 5 -20 31 -69 58 -109 43 -62 61 -80 126 -117 92
-53 142 -63 325 -63 200 1 261 11 350 60 147 80 215 188 227 362 5 65 2 90
-21 162 -37 119 -108 201 -221 257 -78 38 -83 39 -210 43 -71 3 -171 1 -221
-3z m351 -180 c70 -33 104 -70 130 -144 55 -151 13 -280 -115 -360 -32 -20
-50 -22 -235 -25 -225 -4 -251 0 -314 55 -55 47 -71 84 -78 187 -8 113 14 187
70 240 68 63 79 65 302 65 175 1 205 -2 240 -18z"/>
<path d="M15329 1094 l-24 -26 0 -388 0 -388 24 -26 c32 -34 98 -37 127 -5 18
20 19 44 22 388 2 201 0 381 -3 399 -9 47 -37 72 -83 72 -28 0 -45 -7 -63 -26z"/>
<path d="M16961 1094 c-20 -26 -21 -37 -21 -419 0 -372 1 -394 19 -416 15 -19
29 -24 66 -24 39 0 51 5 72 29 l25 30 -2 250 c-2 138 -2 257 -1 264 2 25 53
13 80 -20 45 -55 514 -518 546 -538 37 -24 73 -25 104 -4 47 33 49 57 52 438
2 343 1 358 -18 384 -44 60 -110 64 -141 8 -14 -26 -18 -70 -22 -286 l-5 -255
-27 -3 c-20 -2 -34 6 -60 34 -63 69 -463 469 -512 511 -42 36 -57 43 -92 43
-34 0 -47 -5 -63 -26z"/>
<path d="M19690 1110 c-78 -5 -109 -12 -163 -38 -139 -65 -237 -182 -258 -310
-18 -110 -1 -216 50 -301 50 -84 97 -127 196 -182 l80 -44 261 0 262 1 58 39
c60 42 75 69 64 115 -3 14 -19 31 -34 39 -25 12 -37 11 -95 -5 -54 -16 -101
-19 -256 -19 -104 0 -207 4 -227 8 -59 12 -154 106 -173 170 -32 108 -14 204
53 278 74 82 78 83 314 87 191 3 213 2 273 -18 78 -26 102 -24 128 12 32 43
15 84 -51 124 -47 28 -66 32 -180 43 -134 12 -150 12 -302 1z"/>
<path d="M389 1086 c-86 -35 -125 -63 -158 -113 -35 -53 -46 -97 -38 -155 7
-50 28 -80 95 -135 58 -47 47 -45 327 -66 171 -13 195 -17 243 -41 86 -43 95
-107 22 -150 -32 -19 -51 -21 -255 -21 l-220 0 -47 27 c-26 16 -60 28 -76 28
-34 0 -69 -34 -78 -76 -8 -41 19 -72 102 -114 l68 -35 201 -3 c255 -5 317 4
399 57 101 67 138 124 137 215 0 81 -6 95 -69 160 -63 65 -77 70 -258 90 -205
23 -345 46 -376 62 -38 20 -39 70 -2 105 25 23 30 24 223 27 185 3 202 2 257
-19 33 -12 77 -23 98 -23 35 -1 43 4 63 33 46 69 16 125 -77 140 -93 16 -300
31 -415 31 -92 0 -119 -4 -166 -24z"/>
<path d="M7021 1093 c-60 -30 -61 -36 -61 -426 0 -201 4 -367 10 -381 17 -46
33 -48 357 -48 l304 1 82 38 c53 24 102 57 140 92 50 48 60 64 83 135 16 48
29 114 31 161 5 71 2 89 -23 155 -23 59 -43 89 -97 147 -56 59 -82 77 -145
105 l-77 33 -288 0 c-220 1 -295 -2 -316 -12z m553 -153 c134 -22 222 -126
218 -257 -3 -122 -90 -252 -181 -270 -20 -4 -125 -7 -234 -8 -189 0 -200 1
-215 21 -15 18 -17 49 -15 255 1 128 2 237 2 240 3 28 294 41 425 19z"/>
<path d="M21331 394 c-26 -22 -31 -33 -31 -70 0 -30 6 -50 20 -64 61 -61 160
-13 160 79 0 37 -49 81 -90 81 -16 0 -42 -11 -59 -26z"/>
<path d="M13270 397 c-21 -11 -25 -19 -24 -57 1 -25 5 -66 9 -92 7 -44 5 -50
-24 -83 -32 -36 -36 -50 -25 -80 16 -41 100 -36 142 8 27 29 94 234 86 261
-13 42 -35 56 -88 56 -28 0 -62 -6 -76 -13z"/>
</g></g></svg>