<svg xmlns="http://www.w3.org/2000/svg" viewBox="0 0 512 512" width="512" height="512"><g fill="#050505" transform="translate(39.2688,52.7467) scale(0.309837)"><g transform="translate(0.000000,1310.000000) scale(0.100000,-0.100000)">
<path d="M6615 12640 c-288 -24 -366 -33 -449 -50 -140 -31 -356 -99 -411
-130 -27 -16 -73 -38 -101 -49 -29 -11 -92 -42 -140 -70 -298 -167 -466 -293
-694 -521 -206 -205 -605 -630 -756 -803 -146 -168 -832 -874 -934 -962 -32
-27 -87 -84 -122 -125 -34 -41 -162 -174 -283 -295 -121 -122 -314 -324 -430
-449 -115 -126 -296 -315 -400 -420 -105 -105 -230 -234 -277 -286 -48 -52
-198 -201 -332 -330 -335 -321 -360 -353 -523 -671 -131 -255 -184 -434 -212
-723 -35 -355 35 -696 201 -981 107 -184 150 -239 413 -526 503 -551 511 -557
692 -561 159 -3 183 17 234 192 94 327 295 569 1315 1585 436 435 916 927
1387 1422 158 165 306 318 330 340 24 21 188 187 364 368 340 351 431 434 584
536 207 137 355 208 579 275 321 97 269 94 2201 99 1858 4 1702 -3 1761 83 42
60 49 131 20 188 -38 74 -209 259 -678 734 -450 457 -835 863 -1091 1150 -238
268 -459 466 -675 607 -182 119 -613 304 -777 333 -192 34 -610 55 -796 40z"/>
<path d="M11545 8157 c-22 -8 -56 -22 -75 -32 -60 -31 -344 -320 -442 -450
-62 -82 -163 -192 -322 -350 -269 -267 -1012 -1026 -1205 -1230 -72 -77 -412
-417 -755 -755 -343 -338 -726 -725 -852 -860 -454 -488 -529 -554 -804 -698
-134 -70 -248 -112 -416 -152 -223 -54 -189 -53 -1944 -55 -899 0 -1655 -5
-1680 -9 -88 -17 -138 -61 -126 -110 12 -50 170 -226 686 -766 124 -130 293
-312 375 -406 680 -773 1163 -1275 1335 -1390 143 -96 521 -284 569 -284 6 0
64 -18 128 -40 258 -88 699 -153 893 -130 314 36 548 78 646 115 38 15 98 36
134 47 242 76 530 228 720 381 136 110 526 503 1050 1057 95 102 359 372 585
600 225 228 554 563 730 745 176 181 563 575 860 875 966 977 1620 1656 1659
1723 33 57 102 247 133 366 41 160 41 221 -1 401 -66 283 -167 446 -428 692
-84 79 -247 235 -363 348 -289 281 -349 324 -495 356 -95 20 -542 29 -595 11z"/>
</g></g></svg>